<svg xmlns="http://www.w3.org/2000/svg" viewBox="-20 -20 1040 216">
  <g transform="translate(-13.90,175.61) scale(0.243902)"><path fill="#F4F6F4" d="M57.0 0V-721H165.000244140625V-108.3651123046875H777.0V0Z M811.0 0V-580H918.9056396484375V0.0ZM811.0 -661.7294921875V-770H918.9056396484375V-661.7294921875Z M1132.7568359375 0.0Q1097.4308013916016 0.0 1067.9924392700195 -17.77703857421875Q1038.5540771484375 -35.5540771484375 1020.7770385742188 -64.99243927001953Q1003.0 -94.43080139160156 1003.0 -129.7568359375V-145.4190673828125H1110.9056396484375V-132.67578125Q1110.9056396484375 -122.513671875 1118.2096557617188 -115.20965576171875Q1125.513671875 -107.9056396484375 1135.67578125 -107.9056396484375H1459.594482421875Q1469.756591796875 -107.9056396484375 1477.0606079101562 -115.20965576171875Q1484.3646240234375 -122.513671875 1484.3646240234375 -132.67578125V-211.0946044921875Q1484.3646240234375 -221.2567138671875 1477.0606079101562 -228.56072998046875Q1469.756591796875 -235.86474609375 1459.594482421875 -235.86474609375H1132.7568359375Q1097.4308013916016 -235.86474609375 1067.9924392700195 -253.64178466796875Q1038.5540771484375 -271.4188232421875 1020.7770385742188 -300.85718536376953Q1003.0 -330.29554748535156 1003.0 -365.62158203125V-450.2431640625Q1003.0 -485.56919860839844 1020.7770385742188 -515.0075607299805Q1038.5540771484375 -544.4459228515625 1067.9924392700195 -562.2229614257812Q1097.4308013916016 -580.0 1132.7568359375 -580.0H1462.513427734375Q1498.8830209796347 -580.0 1528.299603751536 -562.2229614257812Q1557.7161865234375 -544.4459228515625 1575.4932250976562 -515.0075607299805Q1593.270263671875 -485.56919860839844 1593.270263671875 -450.2431640625V-434.5809326171875H1484.3646240234375V-447.32421875Q1484.3646240234375 -457.486328125 1477.0606079101562 -464.79034423828125Q1469.756591796875 -472.0943603515625 1459.594482421875 -472.0943603515625H1135.67578125Q1125.513671875 -472.0943603515625 1118.2096557617188 -464.79034423828125Q1110.9056396484375 -457.486328125 1110.9056396484375 -447.32421875V-368.9053955078125Q1110.9056396484375 -358.7432861328125 1118.2096557617188 -351.43927001953125Q1125.513671875 -344.13525390625 1135.67578125 -344.13525390625H1462.513427734375Q1498.8830209796347 -344.13525390625 1528.299603751536 -326.35821533203125Q1557.7161865234375 -308.5811767578125 1575.4932250976562 -279.14281463623047Q1593.270263671875 -249.70445251464844 1593.270263671875 -214.37841796875V-129.7568359375Q1593.270263671875 -94.43080139160156 1575.4932250976562 -64.99243927001953Q1557.7161865234375 -35.5540771484375 1528.299603751536 -17.77703857421875Q1498.8830209796347 0.0 1462.513427734375 0.0H1132.7568359375Z M1801.7568359375 0.0Q1766.4308013916016 0.0 1736.9924392700195 -17.77703857421875Q1707.5540771484375 -35.5540771484375 1689.7770385742188 -64.99243927001953Q1672.0 -94.43080139160156 1672.0 -129.7568359375V-450.2431640625Q1672.0 -485.56919860839844 1689.7770385742188 -515.0075607299805Q1707.5540771484375 -544.4459228515625 1736.9924392700195 -562.2229614257812Q1766.4308013916016 -580.0 1801.7568359375 -580.0H2260.270263671875V-472.0943603515625H1804.67578125Q1794.513671875 -472.0943603515625 1787.2096557617188 -464.79034423828125Q1779.9056396484375 -457.486328125 1779.9056396484375 -447.32421875V-132.67578125Q1779.9056396484375 -122.513671875 1787.2096557617188 -115.20965576171875Q1794.513671875 -107.9056396484375 1804.67578125 -107.9056396484375H2261.9053955078125V0.0H1801.7568359375Z M2476.7568359375 0.0Q2441.4308013916016 0.0 2411.9924392700195 -17.77703857421875Q2382.5540771484375 -35.5540771484375 2364.7770385742188 -64.99243927001953Q2347.0 -94.43080139160156 2347.0 -129.7568359375V-450.2431640625Q2347.0 -485.56919860839844 2364.7770385742188 -515.0075607299805Q2382.5540771484375 -544.4459228515625 2411.9924392700195 -562.2229614257812Q2441.4308013916016 -580.0 2476.7568359375 -580.0H2806.513427734375Q2842.8521728515625 -580.0 2872.2438049316406 -562.2685699462891Q2901.6354370117188 -544.5371398925781 2919.2704162597656 -514.9847564697266Q2936.9053955078125 -485.432373046875 2936.9053955078125 -450.2431640625V-235.86474609375H2454.9056396484375V-132.67578125Q2454.9056396484375 -122.513671875 2462.2096557617188 -115.20965576171875Q2469.513671875 -107.9056396484375 2479.67578125 -107.9056396484375H2936.9053955078125V0.0H2476.7568359375ZM2454.9056396484375 -336.837890625H2828.3646240234375V-447.32421875Q2828.3646240234375 -457.486328125 2821.0606079101562 -464.79034423828125Q2813.756591796875 -472.0943603515625 2803.594482421875 -472.0943603515625H2479.67578125Q2469.513671875 -472.0943603515625 2462.2096557617188 -464.79034423828125Q2454.9056396484375 -457.486328125 2454.9056396484375 -447.32421875Z M3020.0 0V-450.2431640625Q3020.0 -485.56919860839844 3037.7770385742188 -515.0075607299805Q3055.5540771484375 -544.4459228515625 3085.106460571289 -562.2229614257812Q3114.6588439941406 -580.0 3150.1217041015625 -580.0H3473.9324951171875V-472.0943603515625H3152.67578125Q3142.513671875 -472.0943603515625 3135.2096557617188 -464.79034423828125Q3127.9056396484375 -457.486328125 3127.9056396484375 -447.32421875V0.0Z M3645.7568359375 0.0Q3610.4308013916016 0.0 3580.9924392700195 -17.77703857421875Q3551.5540771484375 -35.5540771484375 3533.7770385742188 -64.99243927001953Q3516.0 -94.43080139160156 3516.0 -129.7568359375V-450.2431640625Q3516.0 -485.56919860839844 3533.7770385742188 -515.0075607299805Q3551.5540771484375 -544.4459228515625 3580.9924392700195 -562.2229614257812Q3610.4308013916016 -580.0 3645.7568359375 -580.0H3975.513427734375Q4011.8521728515625 -580.0 4041.2438049316406 -562.2685699462891Q4070.6354370117188 -544.5371398925781 4088.2704162597656 -514.9847564697266Q4105.9053955078125 -485.432373046875 4105.9053955078125 -450.2431640625V-235.86474609375H3623.9056396484375V-132.67578125Q3623.9056396484375 -122.513671875 3631.2096557617188 -115.20965576171875Q3638.513671875 -107.9056396484375 3648.67578125 -107.9056396484375H4105.9053955078125V0.0H3645.7568359375ZM3623.9056396484375 -336.837890625H3997.3646240234375V-447.32421875Q3997.3646240234375 -457.486328125 3990.0606079101562 -464.79034423828125Q3982.756591796875 -472.0943603515625 3972.594482421875 -472.0943603515625H3648.67578125Q3638.513671875 -472.0943603515625 3631.2096557617188 -464.79034423828125Q3623.9056396484375 -457.486328125 3623.9056396484375 -447.32421875Z"/></g>
</svg>
