<svg xmlns="http://www.w3.org/2000/svg" shape-rendering="geometricPrecision" text-rendering="geometricPrecision" image-rendering="optimizeQuality" fill-rule="evenodd" clip-rule="evenodd" viewBox="0 0 512 417.234"><path d="M343.67 0c18.275 0 34.822 7.409 46.799 19.386a66.155 66.155 0 0116.77 28.318h2.663c11.72 0 22.373 4.794 30.091 12.512 7.718 7.718 12.512 18.373 12.512 30.092v56.009c14.831 2.603 28.137 9.792 38.381 20.037C503.913 179.381 512 197.355 512 217.123v61.603c0 19.768-8.088 37.741-21.115 50.767-13.025 13.026-30.999 21.115-50.767 21.115h-13.199A40.742 40.742 0 01436 376.311c0 22.601-18.322 40.923-40.922 40.923-22.6 0-40.923-18.322-40.923-40.923a40.742 40.742 0 019.081-25.703H148.764a40.743 40.743 0 019.082 25.703c0 22.601-18.324 40.923-40.923 40.923-22.601 0-40.923-18.322-40.923-40.923a40.748 40.748 0 019.081-25.703H71.882c-19.769 0-37.742-8.087-50.769-21.114C8.087 316.468 0 298.496 0 278.726v-61.603c0-19.771 8.087-37.744 21.113-50.769 13.026-13.026 30.998-21.113 50.769-21.113H87.94v-18.666h-3.29c-4.733 0-9.034-1.935-12.148-5.049l-.203-.222c-2.996-3.103-4.846-7.314-4.846-11.926v-10.89H52.024a6.079 6.079 0 01-4.294-1.789h-.014a6.084 6.084 0 01-1.788-4.308V36.873c0-1.678.685-3.206 1.787-4.308l.301-.267a6.056 6.056 0 014.008-1.52h15.429V30.4c0-7.625 3.118-14.554 8.136-19.573 5.02-5.019 11.949-8.136 19.573-8.136h140.926c4.72 0 9.019 1.936 12.141 5.056a17.096 17.096 0 015.057 12.141v27.816h26.815c3.148-10.846 8.996-20.545 16.769-28.318C308.847 7.411 325.395 0 343.67 0zm58.399 350.608h-13.983c-11.316 3.071-19.64 13.414-19.64 25.703 0 14.709 11.923 26.632 26.632 26.632 14.708 0 26.632-11.923 26.632-26.632 0-12.289-8.325-22.632-19.641-25.703zm-278.155 0h-13.983c-11.316 3.071-19.64 13.414-19.64 25.703 0 14.709 11.923 26.632 26.632 26.632 14.708 0 26.632-11.923 26.632-26.632 0-12.289-8.325-22.632-19.641-25.703zm271.164-15.22a40.736 40.736 0 0124.506 8.147h20.534c17.815 0 34.018-7.294 45.767-19.043 10.748-10.748 17.768-25.224 18.885-41.253H7.231c1.117 16.031 8.136 30.507 18.883 41.254 11.748 11.748 27.952 19.042 45.768 19.042h20.534a40.739 40.739 0 0124.507-8.147 40.743 40.743 0 0124.507 8.147h229.14a40.746 40.746 0 0124.508-8.147zm-278.155 29.88c6.098 0 11.042 4.944 11.042 11.043 0 6.099-4.944 11.043-11.042 11.043-6.099 0-11.043-4.944-11.043-11.043 0-6.099 4.944-11.043 11.043-11.043zm278.155 0c6.098 0 11.042 4.944 11.042 11.043 0 6.099-4.944 11.043-11.042 11.043-6.099 0-11.043-4.944-11.043-11.043 0-6.099 4.944-11.043 11.043-11.043zm49.544-219.886V90.308c0-9.543-3.908-18.224-10.203-24.518-6.294-6.295-14.974-10.203-24.517-10.203h-.892a66.607 66.607 0 01.711 14.85h2.304c5.583 0 10.67 2.29 14.365 5.978l.024.026c3.684 3.693 5.97 8.776 5.97 14.355v54.445h7.734c1.513 0 3.015.047 4.504.141zm-20.121-.141V90.796a12.42 12.42 0 00-3.653-8.807l-.016-.016a12.422 12.422 0 00-8.807-3.653h-3.281c-2.486 13.411-9.014 25.404-18.275 34.664-11.977 11.977-28.524 19.387-46.799 19.387s-34.823-7.41-46.8-19.387c-9.262-9.261-15.789-21.256-18.275-34.664h-25.309v31.058c0 4.732-1.936 9.034-5.05 12.148-3.113 3.114-7.415 5.049-12.148 5.049h-4.896v18.666h193.309zm-232.116 0v-18.666h-65.637v18.666h65.637zm199.046 90.283a3.537 3.537 0 010-7.073h60.852a3.538 3.538 0 010 7.073h-60.852zm0-27.56a3.537 3.537 0 010-7.073h60.852a3.537 3.537 0 010 7.073h-60.852zm0-27.561a3.537 3.537 0 010-7.072h60.852a3.537 3.537 0 013.537 3.536 3.537 3.537 0 01-3.537 3.536h-60.852zM7.073 276.166h497.855v-59.043c0-17.815-7.294-34.02-19.042-45.769-11.748-11.746-27.951-19.041-45.768-19.041H71.882c-17.818 0-34.021 7.294-45.768 19.041-11.748 11.748-19.041 27.951-19.041 45.769v59.043zM253.286 70.437h24.332a66.533 66.533 0 01-.134-4.251c0-3.609.287-7.148.845-10.599h-25.043v14.85zM67.453 37.85H53v53.565h14.453V37.85zm44.931-.499h95.971c4.984 0 9.513 2.038 12.793 5.317 3.28 3.28 5.317 7.811 5.317 12.793v18.343c0 4.982-2.038 9.512-5.318 12.792-3.28 3.28-7.81 5.318-12.792 5.318h-95.971c-4.983 0-9.514-2.037-12.793-5.317-3.28-3.28-5.317-7.809-5.317-12.793V55.461c0-4.985 2.036-9.514 5.316-12.794 3.28-3.279 7.809-5.316 12.794-5.316zm95.971 7.073h-95.971a11.005 11.005 0 00-7.793 3.244 11.007 11.007 0 00-3.245 7.793v18.343c0 3.031 1.244 5.79 3.246 7.792a11.001 11.001 0 007.792 3.246h95.971c3.028 0 5.789-1.244 7.791-3.247 2.002-2.002 3.247-4.762 3.247-7.791V55.461c0-3.029-1.244-5.79-3.246-7.792a11.003 11.003 0 00-7.792-3.245zm-87.504 24.452a4.243 4.243 0 110-8.486h79.036a4.243 4.243 0 110 8.486h-79.036zm-1.176 57.742H95.012v18.398h24.663v-18.398zm104.445.218h-24.663v18.398h24.663v-18.398zM236.088 9.763H95.162c-5.671 0-10.831 2.324-14.571 6.065-3.741 3.74-6.065 8.9-6.065 14.572v78.978a10.08 10.08 0 002.811 6.992l.166.155a10.096 10.096 0 007.147 2.977h151.438a10.1 10.1 0 007.148-2.977 10.1 10.1 0 002.977-7.147v-89.49c0-2.781-1.142-5.312-2.977-7.148v-.014a10.089 10.089 0 00-7.148-2.963zm104.469 26.796a3.941 3.941 0 017.883 0V51.74l-.001.067c5.613 1.69 9.703 6.9 9.703 13.064 0 7.536-6.108 13.645-13.644 13.645-7.535 0-13.643-6.109-13.643-13.645 0-6.164 4.09-11.374 9.703-13.064l-.001-.067V36.559zm53.706 29.627a6.36 6.36 0 11-12.721 0 6.36 6.36 0 1112.721 0zM379.444 30.41a6.36 6.36 0 010 8.996 6.36 6.36 0 01-8.995 0 6.36 6.36 0 010-8.996 6.36 6.36 0 018.995 0zm-35.775-14.819a6.362 6.362 0 110 12.722 6.36 6.36 0 110-12.722zM316.89 39.407a6.359 6.359 0 01-8.994 0 6.355 6.355 0 010-8.995 6.357 6.357 0 018.994 0 6.358 6.358 0 010 8.995zm-11.093 26.779a6.36 6.36 0 11-12.721 0 6.36 6.36 0 1112.721 0zm11.093 26.778a6.358 6.358 0 010 8.995 6.357 6.357 0 01-8.994 0 6.355 6.355 0 010-8.995 6.359 6.359 0 018.994 0zm26.779 11.093a6.362 6.362 0 110 12.723 6.362 6.362 0 010-12.723zm35.775-2.096a6.36 6.36 0 01-8.995 0 6.36 6.36 0 010-8.996 6.36 6.36 0 018.995 0 6.36 6.36 0 010 8.996zm-34.946-43.813a6.724 6.724 0 11.002 13.448 6.724 6.724 0 01-.002-13.448zm-.828-51.25c32.743 0 59.287 26.544 59.287 59.288 0 32.743-26.544 59.286-59.287 59.286-32.744 0-59.288-26.543-59.288-59.286 0-32.744 26.544-59.288 59.288-59.288z"/></svg>